<?xml version="1.0" encoding="UTF-8" standalone="no"?>
<!DOCTYPE svg PUBLIC "-//W3C//DTD SVG 1.1//EN"
 "http://www.w3.org/Graphics/SVG/1.1/DTD/svg11.dtd">
<!-- Generated by graphviz version 2.43.0 (0)
 -->
<!-- Title: structs Pages: 1 -->
<svg width="840pt" height="396pt"
 viewBox="0.00 0.00 840.00 396.00" xmlns="http://www.w3.org/2000/svg" xmlns:xlink="http://www.w3.org/1999/xlink">
<g id="graph0" class="graph" transform="scale(1 1) rotate(0) translate(4 392)">
<title>structs</title>
<polygon fill="white" stroke="transparent" points="-4,4 -4,-392 836,-392 836,4 -4,4"/>
<!-- 109161530408736 -->
<g id="node1" class="node">
<title>109161530408736</title>
<path fill="#facdb5" stroke="#030303" d="M196.5,-318.5C196.5,-318.5 554.5,-318.5 554.5,-318.5 560.5,-318.5 566.5,-324.5 566.5,-330.5 566.5,-330.5 566.5,-375.5 566.5,-375.5 566.5,-381.5 560.5,-387.5 554.5,-387.5 554.5,-387.5 196.5,-387.5 196.5,-387.5 190.5,-387.5 184.5,-381.5 184.5,-375.5 184.5,-375.5 184.5,-330.5 184.5,-330.5 184.5,-324.5 190.5,-318.5 196.5,-318.5"/>
<text text-anchor="middle" x="375.5" y="-372.3" font-family="Times,serif" font-size="14.00">type = OPERATION</text>
<polyline fill="none" stroke="#030303" points="184.5,-364.5 566.5,-364.5 "/>
<text text-anchor="middle" x="375.5" y="-349.3" font-family="Times,serif" font-size="14.00">value = MULTIPLICATION</text>
<polyline fill="none" stroke="#030303" points="184.5,-341.5 566.5,-341.5 "/>
<text text-anchor="middle" x="277" y="-326.3" font-family="Times,serif" font-size="14.00">left = 0x6348263e3ee0</text>
<polyline fill="none" stroke="#030303" points="369.5,-318.5 369.5,-341.5 "/>
<text text-anchor="middle" x="468" y="-326.3" font-family="Times,serif" font-size="14.00">right = 0x6348263e3de0</text>
</g>
<!-- 109161530408672 -->
<g id="node2" class="node">
<title>109161530408672</title>
<path fill="#facdb5" stroke="#030303" d="M68.5,-212.5C68.5,-212.5 330.5,-212.5 330.5,-212.5 336.5,-212.5 342.5,-218.5 342.5,-224.5 342.5,-224.5 342.5,-269.5 342.5,-269.5 342.5,-275.5 336.5,-281.5 330.5,-281.5 330.5,-281.5 68.5,-281.5 68.5,-281.5 62.5,-281.5 56.5,-275.5 56.5,-269.5 56.5,-269.5 56.5,-224.5 56.5,-224.5 56.5,-218.5 62.5,-212.5 68.5,-212.5"/>
<text text-anchor="middle" x="199.5" y="-266.3" font-family="Times,serif" font-size="14.00">type = OPERATION</text>
<polyline fill="none" stroke="#030303" points="56.5,-258.5 342.5,-258.5 "/>
<text text-anchor="middle" x="199.5" y="-243.3" font-family="Times,serif" font-size="14.00">value = COS</text>
<polyline fill="none" stroke="#030303" points="56.5,-235.5 342.5,-235.5 "/>
<text text-anchor="middle" x="149" y="-220.3" font-family="Times,serif" font-size="14.00">left = 0x6348263e3e20</text>
<polyline fill="none" stroke="#030303" points="241.5,-212.5 241.5,-235.5 "/>
<text text-anchor="middle" x="292" y="-220.3" font-family="Times,serif" font-size="14.00">right = (nil)</text>
</g>
<!-- 109161530408736&#45;&gt;109161530408672 -->
<g id="edge1" class="edge">
<title>109161530408736&#45;&gt;109161530408672</title>
<path fill="none" stroke="#f93319" d="M318.36,-318.23C301.43,-308.23 282.77,-297.2 265.34,-286.91"/>
<polygon fill="#f93319" stroke="#f93319" points="266.75,-283.67 256.36,-281.6 263.18,-289.7 266.75,-283.67"/>
</g>
<!-- 109161530408416 -->
<g id="node6" class="node">
<title>109161530408416</title>
<path fill="#facdb5" stroke="#030303" d="M373,-212.5C373,-212.5 732,-212.5 732,-212.5 738,-212.5 744,-218.5 744,-224.5 744,-224.5 744,-269.5 744,-269.5 744,-275.5 738,-281.5 732,-281.5 732,-281.5 373,-281.5 373,-281.5 367,-281.5 361,-275.5 361,-269.5 361,-269.5 361,-224.5 361,-224.5 361,-218.5 367,-212.5 373,-212.5"/>
<text text-anchor="middle" x="552.5" y="-266.3" font-family="Times,serif" font-size="14.00">type = OPERATION</text>
<polyline fill="none" stroke="#030303" points="361,-258.5 744,-258.5 "/>
<text text-anchor="middle" x="552.5" y="-243.3" font-family="Times,serif" font-size="14.00">value = ADDITION</text>
<polyline fill="none" stroke="#030303" points="361,-235.5 744,-235.5 "/>
<text text-anchor="middle" x="454" y="-220.3" font-family="Times,serif" font-size="14.00">left = 0x6348263e3d60</text>
<polyline fill="none" stroke="#030303" points="547,-212.5 547,-235.5 "/>
<text text-anchor="middle" x="645.5" y="-220.3" font-family="Times,serif" font-size="14.00">right = 0x6348263e3da0</text>
</g>
<!-- 109161530408736&#45;&gt;109161530408416 -->
<g id="edge2" class="edge">
<title>109161530408736&#45;&gt;109161530408416</title>
<path fill="none" stroke="#2c07fd" d="M432.97,-318.23C449.99,-308.23 468.76,-297.2 486.29,-286.91"/>
<polygon fill="#2c07fd" stroke="#2c07fd" points="488.47,-289.68 495.32,-281.6 484.93,-283.64 488.47,-289.68"/>
</g>
<!-- 109161530408480 -->
<g id="node3" class="node">
<title>109161530408480</title>
<path fill="#facdb5" stroke="#030303" d="M21,-106.5C21,-106.5 378,-106.5 378,-106.5 384,-106.5 390,-112.5 390,-118.5 390,-118.5 390,-163.5 390,-163.5 390,-169.5 384,-175.5 378,-175.5 378,-175.5 21,-175.5 21,-175.5 15,-175.5 9,-169.5 9,-163.5 9,-163.5 9,-118.5 9,-118.5 9,-112.5 15,-106.5 21,-106.5"/>
<text text-anchor="middle" x="199.5" y="-160.3" font-family="Times,serif" font-size="14.00">type = OPERATION</text>
<polyline fill="none" stroke="#030303" points="9,-152.5 390,-152.5 "/>
<text text-anchor="middle" x="199.5" y="-137.3" font-family="Times,serif" font-size="14.00">value = (null)</text>
<polyline fill="none" stroke="#030303" points="9,-129.5 390,-129.5 "/>
<text text-anchor="middle" x="101.5" y="-114.3" font-family="Times,serif" font-size="14.00">left = 0x6348263e3e60</text>
<polyline fill="none" stroke="#030303" points="194,-106.5 194,-129.5 "/>
<text text-anchor="middle" x="292" y="-114.3" font-family="Times,serif" font-size="14.00">right = 0x6348263e3ea0</text>
</g>
<!-- 109161530408672&#45;&gt;109161530408480 -->
<g id="edge3" class="edge">
<title>109161530408672&#45;&gt;109161530408480</title>
<path fill="none" stroke="#f93319" d="M199.5,-212.23C199.5,-203.79 199.5,-194.62 199.5,-185.77"/>
<polygon fill="#f93319" stroke="#f93319" points="203,-185.6 199.5,-175.6 196,-185.6 203,-185.6"/>
</g>
<!-- 109161530408544 -->
<g id="node4" class="node">
<title>109161530408544</title>
<path fill="#b5fab8" stroke="#030303" d="M12,-0.5C12,-0.5 179,-0.5 179,-0.5 185,-0.5 191,-6.5 191,-12.5 191,-12.5 191,-57.5 191,-57.5 191,-63.5 185,-69.5 179,-69.5 179,-69.5 12,-69.5 12,-69.5 6,-69.5 0,-63.5 0,-57.5 0,-57.5 0,-12.5 0,-12.5 0,-6.5 6,-0.5 12,-0.5"/>
<text text-anchor="middle" x="95.5" y="-54.3" font-family="Times,serif" font-size="14.00">type = VARIABLE</text>
<polyline fill="none" stroke="#030303" points="0,-46.5 191,-46.5 "/>
<text text-anchor="middle" x="95.5" y="-31.3" font-family="Times,serif" font-size="14.00">value = x</text>
<polyline fill="none" stroke="#030303" points="0,-23.5 191,-23.5 "/>
<text text-anchor="middle" x="45" y="-8.3" font-family="Times,serif" font-size="14.00">left = (nil)</text>
<polyline fill="none" stroke="#030303" points="90,-0.5 90,-23.5 "/>
<text text-anchor="middle" x="140.5" y="-8.3" font-family="Times,serif" font-size="14.00">right = (nil)</text>
</g>
<!-- 109161530408480&#45;&gt;109161530408544 -->
<g id="edge4" class="edge">
<title>109161530408480&#45;&gt;109161530408544</title>
<path fill="none" stroke="#f93319" d="M165.73,-106.23C156.38,-96.88 146.12,-86.62 136.4,-76.9"/>
<polygon fill="#f93319" stroke="#f93319" points="138.64,-74.19 129.1,-69.6 133.69,-79.14 138.64,-74.19"/>
</g>
<!-- 109161530408608 -->
<g id="node5" class="node">
<title>109161530408608</title>
<path fill="#b5ebfa" stroke="#030303" d="M221,-0.5C221,-0.5 388,-0.5 388,-0.5 394,-0.5 400,-6.5 400,-12.5 400,-12.5 400,-57.5 400,-57.5 400,-63.5 394,-69.5 388,-69.5 388,-69.5 221,-69.5 221,-69.5 215,-69.5 209,-63.5 209,-57.5 209,-57.5 209,-12.5 209,-12.5 209,-6.5 215,-0.5 221,-0.5"/>
<text text-anchor="middle" x="304.5" y="-54.3" font-family="Times,serif" font-size="14.00">type = NUMBER</text>
<polyline fill="none" stroke="#030303" points="209,-46.5 400,-46.5 "/>
<text text-anchor="middle" x="304.5" y="-31.3" font-family="Times,serif" font-size="14.00">value = 2</text>
<polyline fill="none" stroke="#030303" points="209,-23.5 400,-23.5 "/>
<text text-anchor="middle" x="254" y="-8.3" font-family="Times,serif" font-size="14.00">left = (nil)</text>
<polyline fill="none" stroke="#030303" points="299,-0.5 299,-23.5 "/>
<text text-anchor="middle" x="349.5" y="-8.3" font-family="Times,serif" font-size="14.00">right = (nil)</text>
</g>
<!-- 109161530408480&#45;&gt;109161530408608 -->
<g id="edge5" class="edge">
<title>109161530408480&#45;&gt;109161530408608</title>
<path fill="none" stroke="#2c07fd" d="M233.59,-106.23C243.04,-96.88 253.4,-86.62 263.21,-76.9"/>
<polygon fill="#2c07fd" stroke="#2c07fd" points="265.94,-79.12 270.58,-69.6 261.01,-74.15 265.94,-79.12"/>
</g>
<!-- 109161530408288 -->
<g id="node7" class="node">
<title>109161530408288</title>
<path fill="#b5ebfa" stroke="#030303" d="M444,-106.5C444,-106.5 611,-106.5 611,-106.5 617,-106.5 623,-112.5 623,-118.5 623,-118.5 623,-163.5 623,-163.5 623,-169.5 617,-175.5 611,-175.5 611,-175.5 444,-175.5 444,-175.5 438,-175.5 432,-169.5 432,-163.5 432,-163.5 432,-118.5 432,-118.5 432,-112.5 438,-106.5 444,-106.5"/>
<text text-anchor="middle" x="527.5" y="-160.3" font-family="Times,serif" font-size="14.00">type = NUMBER</text>
<polyline fill="none" stroke="#030303" points="432,-152.5 623,-152.5 "/>
<text text-anchor="middle" x="527.5" y="-137.3" font-family="Times,serif" font-size="14.00">value = 1</text>
<polyline fill="none" stroke="#030303" points="432,-129.5 623,-129.5 "/>
<text text-anchor="middle" x="477" y="-114.3" font-family="Times,serif" font-size="14.00">left = (nil)</text>
<polyline fill="none" stroke="#030303" points="522,-106.5 522,-129.5 "/>
<text text-anchor="middle" x="572.5" y="-114.3" font-family="Times,serif" font-size="14.00">right = (nil)</text>
</g>
<!-- 109161530408416&#45;&gt;109161530408288 -->
<g id="edge6" class="edge">
<title>109161530408416&#45;&gt;109161530408288</title>
<path fill="none" stroke="#f93319" d="M544.38,-212.23C542.33,-203.7 540.1,-194.42 537.95,-185.48"/>
<polygon fill="#f93319" stroke="#f93319" points="541.32,-184.5 535.58,-175.6 534.51,-186.14 541.32,-184.5"/>
</g>
<!-- 109161530408352 -->
<g id="node8" class="node">
<title>109161530408352</title>
<path fill="#b5ebfa" stroke="#030303" d="M653,-106.5C653,-106.5 820,-106.5 820,-106.5 826,-106.5 832,-112.5 832,-118.5 832,-118.5 832,-163.5 832,-163.5 832,-169.5 826,-175.5 820,-175.5 820,-175.5 653,-175.5 653,-175.5 647,-175.5 641,-169.5 641,-163.5 641,-163.5 641,-118.5 641,-118.5 641,-112.5 647,-106.5 653,-106.5"/>
<text text-anchor="middle" x="736.5" y="-160.3" font-family="Times,serif" font-size="14.00">type = NUMBER</text>
<polyline fill="none" stroke="#030303" points="641,-152.5 832,-152.5 "/>
<text text-anchor="middle" x="736.5" y="-137.3" font-family="Times,serif" font-size="14.00">value = 0</text>
<polyline fill="none" stroke="#030303" points="641,-129.5 832,-129.5 "/>
<text text-anchor="middle" x="686" y="-114.3" font-family="Times,serif" font-size="14.00">left = (nil)</text>
<polyline fill="none" stroke="#030303" points="731,-106.5 731,-129.5 "/>
<text text-anchor="middle" x="781.5" y="-114.3" font-family="Times,serif" font-size="14.00">right = (nil)</text>
</g>
<!-- 109161530408416&#45;&gt;109161530408352 -->
<g id="edge7" class="edge">
<title>109161530408416&#45;&gt;109161530408352</title>
<path fill="none" stroke="#2c07fd" d="M611.99,-212.38C629.94,-202.23 649.79,-191.01 668.27,-180.56"/>
<polygon fill="#2c07fd" stroke="#2c07fd" points="670.24,-183.47 677.22,-175.51 666.79,-177.38 670.24,-183.47"/>
</g>
</g>
</svg>
