<?xml version="1.0" encoding="UTF-8" standalone="no"?>
<!DOCTYPE svg PUBLIC "-//W3C//DTD SVG 1.1//EN"
 "http://www.w3.org/Graphics/SVG/1.1/DTD/svg11.dtd">
<!-- Generated by graphviz version 2.43.0 (0)
 -->
<!-- Title: structs Pages: 1 -->
<svg width="836pt" height="396pt"
 viewBox="0.00 0.00 836.00 396.00" xmlns="http://www.w3.org/2000/svg" xmlns:xlink="http://www.w3.org/1999/xlink">
<g id="graph0" class="graph" transform="scale(1 1) rotate(0) translate(4 392)">
<title>structs</title>
<polygon fill="white" stroke="transparent" points="-4,4 -4,-392 832,-392 832,4 -4,4"/>
<!-- 110990818574112 -->
<g id="node1" class="node">
<title>110990818574112</title>
<path fill="#facdb5" stroke="#030303" d="M197.5,-318.5C197.5,-318.5 549.5,-318.5 549.5,-318.5 555.5,-318.5 561.5,-324.5 561.5,-330.5 561.5,-330.5 561.5,-375.5 561.5,-375.5 561.5,-381.5 555.5,-387.5 549.5,-387.5 549.5,-387.5 197.5,-387.5 197.5,-387.5 191.5,-387.5 185.5,-381.5 185.5,-375.5 185.5,-375.5 185.5,-330.5 185.5,-330.5 185.5,-324.5 191.5,-318.5 197.5,-318.5"/>
<text text-anchor="middle" x="373.5" y="-372.3" font-family="Times,serif" font-size="14.00">type = OPERATION</text>
<polyline fill="none" stroke="#030303" points="185.5,-364.5 561.5,-364.5 "/>
<text text-anchor="middle" x="373.5" y="-349.3" font-family="Times,serif" font-size="14.00">value = MULTIPLICATION</text>
<polyline fill="none" stroke="#030303" points="185.5,-341.5 561.5,-341.5 "/>
<text text-anchor="middle" x="276.5" y="-326.3" font-family="Times,serif" font-size="14.00">left = 0x64f210507ee0</text>
<polyline fill="none" stroke="#030303" points="367.5,-318.5 367.5,-341.5 "/>
<text text-anchor="middle" x="464.5" y="-326.3" font-family="Times,serif" font-size="14.00">right = 0x64f210507de0</text>
</g>
<!-- 110990818574048 -->
<g id="node2" class="node">
<title>110990818574048</title>
<path fill="#facdb5" stroke="#030303" d="M70,-212.5C70,-212.5 329,-212.5 329,-212.5 335,-212.5 341,-218.5 341,-224.5 341,-224.5 341,-269.5 341,-269.5 341,-275.5 335,-281.5 329,-281.5 329,-281.5 70,-281.5 70,-281.5 64,-281.5 58,-275.5 58,-269.5 58,-269.5 58,-224.5 58,-224.5 58,-218.5 64,-212.5 70,-212.5"/>
<text text-anchor="middle" x="199.5" y="-266.3" font-family="Times,serif" font-size="14.00">type = OPERATION</text>
<polyline fill="none" stroke="#030303" points="58,-258.5 341,-258.5 "/>
<text text-anchor="middle" x="199.5" y="-243.3" font-family="Times,serif" font-size="14.00">value = COS</text>
<polyline fill="none" stroke="#030303" points="58,-235.5 341,-235.5 "/>
<text text-anchor="middle" x="149" y="-220.3" font-family="Times,serif" font-size="14.00">left = 0x64f210507e20</text>
<polyline fill="none" stroke="#030303" points="240,-212.5 240,-235.5 "/>
<text text-anchor="middle" x="290.5" y="-220.3" font-family="Times,serif" font-size="14.00">right = (nil)</text>
</g>
<!-- 110990818574112&#45;&gt;110990818574048 -->
<g id="edge1" class="edge">
<title>110990818574112&#45;&gt;110990818574048</title>
<path fill="none" stroke="#f93319" d="M317.01,-318.23C300.28,-308.23 281.82,-297.2 264.59,-286.91"/>
<polygon fill="#f93319" stroke="#f93319" points="266.09,-283.72 255.71,-281.6 262.5,-289.73 266.09,-283.72"/>
</g>
<!-- 110990818573792 -->
<g id="node6" class="node">
<title>110990818573792</title>
<path fill="#facdb5" stroke="#030303" d="M371,-212.5C371,-212.5 724,-212.5 724,-212.5 730,-212.5 736,-218.5 736,-224.5 736,-224.5 736,-269.5 736,-269.5 736,-275.5 730,-281.5 724,-281.5 724,-281.5 371,-281.5 371,-281.5 365,-281.5 359,-275.5 359,-269.5 359,-269.5 359,-224.5 359,-224.5 359,-218.5 365,-212.5 371,-212.5"/>
<text text-anchor="middle" x="547.5" y="-266.3" font-family="Times,serif" font-size="14.00">type = OPERATION</text>
<polyline fill="none" stroke="#030303" points="359,-258.5 736,-258.5 "/>
<text text-anchor="middle" x="547.5" y="-243.3" font-family="Times,serif" font-size="14.00">value = ADDITION</text>
<polyline fill="none" stroke="#030303" points="359,-235.5 736,-235.5 "/>
<text text-anchor="middle" x="450.5" y="-220.3" font-family="Times,serif" font-size="14.00">left = 0x64f210507d60</text>
<polyline fill="none" stroke="#030303" points="542,-212.5 542,-235.5 "/>
<text text-anchor="middle" x="639" y="-220.3" font-family="Times,serif" font-size="14.00">right = 0x64f210507da0</text>
</g>
<!-- 110990818574112&#45;&gt;110990818573792 -->
<g id="edge2" class="edge">
<title>110990818574112&#45;&gt;110990818573792</title>
<path fill="none" stroke="#2c07fd" d="M429.99,-318.23C446.72,-308.23 465.18,-297.2 482.41,-286.91"/>
<polygon fill="#2c07fd" stroke="#2c07fd" points="484.5,-289.73 491.29,-281.6 480.91,-283.72 484.5,-289.73"/>
</g>
<!-- 110990818573856 -->
<g id="node3" class="node">
<title>110990818573856</title>
<path fill="#facdb5" stroke="#030303" d="M24,-106.5C24,-106.5 375,-106.5 375,-106.5 381,-106.5 387,-112.5 387,-118.5 387,-118.5 387,-163.5 387,-163.5 387,-169.5 381,-175.5 375,-175.5 375,-175.5 24,-175.5 24,-175.5 18,-175.5 12,-169.5 12,-163.5 12,-163.5 12,-118.5 12,-118.5 12,-112.5 18,-106.5 24,-106.5"/>
<text text-anchor="middle" x="199.5" y="-160.3" font-family="Times,serif" font-size="14.00">type = OPERATION</text>
<polyline fill="none" stroke="#030303" points="12,-152.5 387,-152.5 "/>
<text text-anchor="middle" x="199.5" y="-137.3" font-family="Times,serif" font-size="14.00">value = (null)</text>
<polyline fill="none" stroke="#030303" points="12,-129.5 387,-129.5 "/>
<text text-anchor="middle" x="103" y="-114.3" font-family="Times,serif" font-size="14.00">left = 0x64f210507e60</text>
<polyline fill="none" stroke="#030303" points="194,-106.5 194,-129.5 "/>
<text text-anchor="middle" x="290.5" y="-114.3" font-family="Times,serif" font-size="14.00">right = 0x64f210507ea0</text>
</g>
<!-- 110990818574048&#45;&gt;110990818573856 -->
<g id="edge3" class="edge">
<title>110990818574048&#45;&gt;110990818573856</title>
<path fill="none" stroke="#f93319" d="M199.5,-212.23C199.5,-203.79 199.5,-194.62 199.5,-185.77"/>
<polygon fill="#f93319" stroke="#f93319" points="203,-185.6 199.5,-175.6 196,-185.6 203,-185.6"/>
</g>
<!-- 110990818573920 -->
<g id="node4" class="node">
<title>110990818573920</title>
<path fill="#b5fab8" stroke="#030303" d="M12,-0.5C12,-0.5 179,-0.5 179,-0.5 185,-0.5 191,-6.5 191,-12.5 191,-12.5 191,-57.5 191,-57.5 191,-63.5 185,-69.5 179,-69.5 179,-69.5 12,-69.5 12,-69.5 6,-69.5 0,-63.5 0,-57.5 0,-57.5 0,-12.5 0,-12.5 0,-6.5 6,-0.5 12,-0.5"/>
<text text-anchor="middle" x="95.5" y="-54.3" font-family="Times,serif" font-size="14.00">type = VARIABLE</text>
<polyline fill="none" stroke="#030303" points="0,-46.5 191,-46.5 "/>
<text text-anchor="middle" x="95.5" y="-31.3" font-family="Times,serif" font-size="14.00">value = x</text>
<polyline fill="none" stroke="#030303" points="0,-23.5 191,-23.5 "/>
<text text-anchor="middle" x="45" y="-8.3" font-family="Times,serif" font-size="14.00">left = (nil)</text>
<polyline fill="none" stroke="#030303" points="90,-0.5 90,-23.5 "/>
<text text-anchor="middle" x="140.5" y="-8.3" font-family="Times,serif" font-size="14.00">right = (nil)</text>
</g>
<!-- 110990818573856&#45;&gt;110990818573920 -->
<g id="edge4" class="edge">
<title>110990818573856&#45;&gt;110990818573920</title>
<path fill="none" stroke="#f93319" d="M165.73,-106.23C156.38,-96.88 146.12,-86.62 136.4,-76.9"/>
<polygon fill="#f93319" stroke="#f93319" points="138.64,-74.19 129.1,-69.6 133.69,-79.14 138.64,-74.19"/>
</g>
<!-- 110990818573984 -->
<g id="node5" class="node">
<title>110990818573984</title>
<path fill="#b5ebfa" stroke="#030303" d="M221,-0.5C221,-0.5 388,-0.5 388,-0.5 394,-0.5 400,-6.5 400,-12.5 400,-12.5 400,-57.5 400,-57.5 400,-63.5 394,-69.5 388,-69.5 388,-69.5 221,-69.5 221,-69.5 215,-69.5 209,-63.5 209,-57.5 209,-57.5 209,-12.5 209,-12.5 209,-6.5 215,-0.5 221,-0.5"/>
<text text-anchor="middle" x="304.5" y="-54.3" font-family="Times,serif" font-size="14.00">type = NUMBER</text>
<polyline fill="none" stroke="#030303" points="209,-46.5 400,-46.5 "/>
<text text-anchor="middle" x="304.5" y="-31.3" font-family="Times,serif" font-size="14.00">value = 2</text>
<polyline fill="none" stroke="#030303" points="209,-23.5 400,-23.5 "/>
<text text-anchor="middle" x="254" y="-8.3" font-family="Times,serif" font-size="14.00">left = (nil)</text>
<polyline fill="none" stroke="#030303" points="299,-0.5 299,-23.5 "/>
<text text-anchor="middle" x="349.5" y="-8.3" font-family="Times,serif" font-size="14.00">right = (nil)</text>
</g>
<!-- 110990818573856&#45;&gt;110990818573984 -->
<g id="edge5" class="edge">
<title>110990818573856&#45;&gt;110990818573984</title>
<path fill="none" stroke="#2c07fd" d="M233.59,-106.23C243.04,-96.88 253.4,-86.62 263.21,-76.9"/>
<polygon fill="#2c07fd" stroke="#2c07fd" points="265.94,-79.12 270.58,-69.6 261.01,-74.15 265.94,-79.12"/>
</g>
<!-- 110990818573664 -->
<g id="node7" class="node">
<title>110990818573664</title>
<path fill="#b5ebfa" stroke="#030303" d="M440,-106.5C440,-106.5 607,-106.5 607,-106.5 613,-106.5 619,-112.5 619,-118.5 619,-118.5 619,-163.5 619,-163.5 619,-169.5 613,-175.5 607,-175.5 607,-175.5 440,-175.5 440,-175.5 434,-175.5 428,-169.5 428,-163.5 428,-163.5 428,-118.5 428,-118.5 428,-112.5 434,-106.5 440,-106.5"/>
<text text-anchor="middle" x="523.5" y="-160.3" font-family="Times,serif" font-size="14.00">type = NUMBER</text>
<polyline fill="none" stroke="#030303" points="428,-152.5 619,-152.5 "/>
<text text-anchor="middle" x="523.5" y="-137.3" font-family="Times,serif" font-size="14.00">value = 1</text>
<polyline fill="none" stroke="#030303" points="428,-129.5 619,-129.5 "/>
<text text-anchor="middle" x="473" y="-114.3" font-family="Times,serif" font-size="14.00">left = (nil)</text>
<polyline fill="none" stroke="#030303" points="518,-106.5 518,-129.5 "/>
<text text-anchor="middle" x="568.5" y="-114.3" font-family="Times,serif" font-size="14.00">right = (nil)</text>
</g>
<!-- 110990818573792&#45;&gt;110990818573664 -->
<g id="edge6" class="edge">
<title>110990818573792&#45;&gt;110990818573664</title>
<path fill="none" stroke="#f93319" d="M539.71,-212.23C537.74,-203.7 535.6,-194.42 533.53,-185.48"/>
<polygon fill="#f93319" stroke="#f93319" points="536.91,-184.55 531.25,-175.6 530.09,-186.13 536.91,-184.55"/>
</g>
<!-- 110990818573728 -->
<g id="node8" class="node">
<title>110990818573728</title>
<path fill="#b5ebfa" stroke="#030303" d="M649,-106.5C649,-106.5 816,-106.5 816,-106.5 822,-106.5 828,-112.5 828,-118.5 828,-118.5 828,-163.5 828,-163.5 828,-169.5 822,-175.5 816,-175.5 816,-175.5 649,-175.5 649,-175.5 643,-175.5 637,-169.5 637,-163.5 637,-163.5 637,-118.5 637,-118.5 637,-112.5 643,-106.5 649,-106.5"/>
<text text-anchor="middle" x="732.5" y="-160.3" font-family="Times,serif" font-size="14.00">type = NUMBER</text>
<polyline fill="none" stroke="#030303" points="637,-152.5 828,-152.5 "/>
<text text-anchor="middle" x="732.5" y="-137.3" font-family="Times,serif" font-size="14.00">value = 0</text>
<polyline fill="none" stroke="#030303" points="637,-129.5 828,-129.5 "/>
<text text-anchor="middle" x="682" y="-114.3" font-family="Times,serif" font-size="14.00">left = (nil)</text>
<polyline fill="none" stroke="#030303" points="727,-106.5 727,-129.5 "/>
<text text-anchor="middle" x="777.5" y="-114.3" font-family="Times,serif" font-size="14.00">right = (nil)</text>
</g>
<!-- 110990818573792&#45;&gt;110990818573728 -->
<g id="edge7" class="edge">
<title>110990818573792&#45;&gt;110990818573728</title>
<path fill="none" stroke="#2c07fd" d="M607.31,-212.38C625.44,-202.18 645.5,-190.91 664.16,-180.42"/>
<polygon fill="#2c07fd" stroke="#2c07fd" points="665.9,-183.46 672.9,-175.51 662.47,-177.36 665.9,-183.46"/>
</g>
</g>
</svg>
