<?xml version="1.0" encoding="UTF-8" standalone="no"?>
<!DOCTYPE svg PUBLIC "-//W3C//DTD SVG 1.1//EN"
 "http://www.w3.org/Graphics/SVG/1.1/DTD/svg11.dtd">
<!-- Generated by graphviz version 2.43.0 (0)
 -->
<!-- Title: structs Pages: 1 -->
<svg width="408pt" height="290pt"
 viewBox="0.00 0.00 408.00 290.00" xmlns="http://www.w3.org/2000/svg" xmlns:xlink="http://www.w3.org/1999/xlink">
<g id="graph0" class="graph" transform="scale(1 1) rotate(0) translate(4 286)">
<title>structs</title>
<polygon fill="white" stroke="transparent" points="-4,4 -4,-286 404,-286 404,4 -4,4"/>
<!-- 110990818572592 -->
<g id="node1" class="node">
<title>110990818572592</title>
<path fill="#facdb5" stroke="#030303" d="M70,-212.5C70,-212.5 329,-212.5 329,-212.5 335,-212.5 341,-218.5 341,-224.5 341,-224.5 341,-269.5 341,-269.5 341,-275.5 335,-281.5 329,-281.5 329,-281.5 70,-281.5 70,-281.5 64,-281.5 58,-275.5 58,-269.5 58,-269.5 58,-224.5 58,-224.5 58,-218.5 64,-212.5 70,-212.5"/>
<text text-anchor="middle" x="199.5" y="-266.3" font-family="Times,serif" font-size="14.00">type = OPERATION</text>
<polyline fill="none" stroke="#030303" points="58,-258.5 341,-258.5 "/>
<text text-anchor="middle" x="199.5" y="-243.3" font-family="Times,serif" font-size="14.00">value = SIN</text>
<polyline fill="none" stroke="#030303" points="58,-235.5 341,-235.5 "/>
<text text-anchor="middle" x="149" y="-220.3" font-family="Times,serif" font-size="14.00">left = 0x64f2105079e0</text>
<polyline fill="none" stroke="#030303" points="240,-212.5 240,-235.5 "/>
<text text-anchor="middle" x="290.5" y="-220.3" font-family="Times,serif" font-size="14.00">right = (nil)</text>
</g>
<!-- 110990818572768 -->
<g id="node2" class="node">
<title>110990818572768</title>
<path fill="#facdb5" stroke="#030303" d="M23.5,-106.5C23.5,-106.5 375.5,-106.5 375.5,-106.5 381.5,-106.5 387.5,-112.5 387.5,-118.5 387.5,-118.5 387.5,-163.5 387.5,-163.5 387.5,-169.5 381.5,-175.5 375.5,-175.5 375.5,-175.5 23.5,-175.5 23.5,-175.5 17.5,-175.5 11.5,-169.5 11.5,-163.5 11.5,-163.5 11.5,-118.5 11.5,-118.5 11.5,-112.5 17.5,-106.5 23.5,-106.5"/>
<text text-anchor="middle" x="199.5" y="-160.3" font-family="Times,serif" font-size="14.00">type = OPERATION</text>
<polyline fill="none" stroke="#030303" points="11.5,-152.5 387.5,-152.5 "/>
<text text-anchor="middle" x="199.5" y="-137.3" font-family="Times,serif" font-size="14.00">value = ADDITION</text>
<polyline fill="none" stroke="#030303" points="11.5,-129.5 387.5,-129.5 "/>
<text text-anchor="middle" x="102.5" y="-114.3" font-family="Times,serif" font-size="14.00">left = 0x64f210507a90</text>
<polyline fill="none" stroke="#030303" points="193.5,-106.5 193.5,-129.5 "/>
<text text-anchor="middle" x="290.5" y="-114.3" font-family="Times,serif" font-size="14.00">right = 0x64f210507b40</text>
</g>
<!-- 110990818572592&#45;&gt;110990818572768 -->
<g id="edge1" class="edge">
<title>110990818572592&#45;&gt;110990818572768</title>
<path fill="none" stroke="#f93319" d="M199.5,-212.23C199.5,-203.79 199.5,-194.62 199.5,-185.77"/>
<polygon fill="#f93319" stroke="#f93319" points="203,-185.6 199.5,-175.6 196,-185.6 203,-185.6"/>
</g>
<!-- 110990818572944 -->
<g id="node3" class="node">
<title>110990818572944</title>
<path fill="#b5fab8" stroke="#030303" d="M12,-0.5C12,-0.5 179,-0.5 179,-0.5 185,-0.5 191,-6.5 191,-12.5 191,-12.5 191,-57.5 191,-57.5 191,-63.5 185,-69.5 179,-69.5 179,-69.5 12,-69.5 12,-69.5 6,-69.5 0,-63.5 0,-57.5 0,-57.5 0,-12.5 0,-12.5 0,-6.5 6,-0.5 12,-0.5"/>
<text text-anchor="middle" x="95.5" y="-54.3" font-family="Times,serif" font-size="14.00">type = VARIABLE</text>
<polyline fill="none" stroke="#030303" points="0,-46.5 191,-46.5 "/>
<text text-anchor="middle" x="95.5" y="-31.3" font-family="Times,serif" font-size="14.00">value = x</text>
<polyline fill="none" stroke="#030303" points="0,-23.5 191,-23.5 "/>
<text text-anchor="middle" x="45" y="-8.3" font-family="Times,serif" font-size="14.00">left = (nil)</text>
<polyline fill="none" stroke="#030303" points="90,-0.5 90,-23.5 "/>
<text text-anchor="middle" x="140.5" y="-8.3" font-family="Times,serif" font-size="14.00">right = (nil)</text>
</g>
<!-- 110990818572768&#45;&gt;110990818572944 -->
<g id="edge2" class="edge">
<title>110990818572768&#45;&gt;110990818572944</title>
<path fill="none" stroke="#f93319" d="M165.73,-106.23C156.38,-96.88 146.12,-86.62 136.4,-76.9"/>
<polygon fill="#f93319" stroke="#f93319" points="138.64,-74.19 129.1,-69.6 133.69,-79.14 138.64,-74.19"/>
</g>
<!-- 110990818573120 -->
<g id="node4" class="node">
<title>110990818573120</title>
<path fill="#b5ebfa" stroke="#030303" d="M221,-0.5C221,-0.5 388,-0.5 388,-0.5 394,-0.5 400,-6.5 400,-12.5 400,-12.5 400,-57.5 400,-57.5 400,-63.5 394,-69.5 388,-69.5 388,-69.5 221,-69.5 221,-69.5 215,-69.5 209,-63.5 209,-57.5 209,-57.5 209,-12.5 209,-12.5 209,-6.5 215,-0.5 221,-0.5"/>
<text text-anchor="middle" x="304.5" y="-54.3" font-family="Times,serif" font-size="14.00">type = NUMBER</text>
<polyline fill="none" stroke="#030303" points="209,-46.5 400,-46.5 "/>
<text text-anchor="middle" x="304.5" y="-31.3" font-family="Times,serif" font-size="14.00">value = 2</text>
<polyline fill="none" stroke="#030303" points="209,-23.5 400,-23.5 "/>
<text text-anchor="middle" x="254" y="-8.3" font-family="Times,serif" font-size="14.00">left = (nil)</text>
<polyline fill="none" stroke="#030303" points="299,-0.5 299,-23.5 "/>
<text text-anchor="middle" x="349.5" y="-8.3" font-family="Times,serif" font-size="14.00">right = (nil)</text>
</g>
<!-- 110990818572768&#45;&gt;110990818573120 -->
<g id="edge3" class="edge">
<title>110990818572768&#45;&gt;110990818573120</title>
<path fill="none" stroke="#2c07fd" d="M233.59,-106.23C243.04,-96.88 253.4,-86.62 263.21,-76.9"/>
<polygon fill="#2c07fd" stroke="#2c07fd" points="265.94,-79.12 270.58,-69.6 261.01,-74.15 265.94,-79.12"/>
</g>
</g>
</svg>
